/* XPM */
static char * pause_xpm[] = {
"34 17 5 1",
" 	c None",
".	c #EEF2EE",
"+	c #CDCECD",
"@	c #626562",
"#	c #000000",
".++++++++++++++++++++++++++++++++@",
".++++++++++++++++++++++++++++++++@",
".++++++++++++##+++##+++++++++++++@",
".++++++++++++##+++##+++++++++++++@",
".++++++++++++##+++##+++++++++++++@",
".++++++++++++##+++##+++++++++++++@",
".++++++++++++##+++##+++++++++++++@",
".++++++++++++##+++##+++++++++++++@",
".++++++++++++##+++##+++++++++++++@",
".++++++++++++##+++##+++++++++++++@",
".++++++++++++##+++##+++++++++++++@",
".++++++++++++##+++##+++++++++++++@",
".++++++++++++##+++##+++++++++++++@",
".++++++++++++##+++##+++++++++++++@",
".++++++++++++##+++##+++++++++++++@",
".++++++++++++++++++++++++++++++++@",
".++++++++++++++++++++++++++++++++@"};
