/* XPM */
static char * play_xpm[] = {
"44 20 4 1",
" 	c None",
".	c #EEF2EE",
"+	c #CDCECD",
"@	c #000000",
"............................................",
".+++++++++++++++++++++++++++++++++++++++++++",
".+++++++++++++++++++++++++++++++++++++++++++",
".+++++++++++++++++++++++++++++++++++++++++++",
".+++++++++++++++++++@@@+++++++++++++++++++++",
".+++++++++++++++++++@@@@++++++++++++++++++++",
".+++++++++++++++++++@@@@@+++++++++++++++++++",
".+++++++++++++++++++@@+@@@++++++++++++++++++",
".+++++++++++++++++++@@++@@@+++++++++++++++++",
".+++++++++++++++++++@@+++@@@++++++++++++++++",
".+++++++++++++++++++@@++++@@@+++++++++++++++",
".+++++++++++++++++++@@+++@@@++++++++++++++++",
".+++++++++++++++++++@@++@@@+++++++++++++++++",
".+++++++++++++++++++@@+@@@++++++++++++++++++",
".+++++++++++++++++++@@@@@+++++++++++++++++++",
".+++++++++++++++++++@@@@++++++++++++++++++++",
".+++++++++++++++++++@@@+++++++++++++++++++++",
".+++++++++++++++++++++++++++++++++++++++++++",
".+++++++++++++++++++++++++++++++++++++++++++",
".+++++++++++++++++++++++++++++++++++++++++++"};
