/* XPM */
static char * Pz12_xpm[] = {
"48 48 174 2",
"  	c None",
". 	c #D6D6CE",
"+ 	c #6B6B6B",
"@ 	c #292929",
"# 	c #212121",
"$ 	c #181818",
"% 	c #393939",
"& 	c #313131",
"* 	c #424242",
"= 	c #636363",
"- 	c #4A4A4A",
"; 	c #525252",
"> 	c #5A5A5A",
", 	c #737373",
"' 	c #848484",
") 	c #8C8C8C",
"! 	c #8C8C84",
"~ 	c #C6C6C6",
"{ 	c #000000",
"] 	c #7B7B7B",
"^ 	c #8C948C",
"/ 	c #182118",
"( 	c #94948C",
"_ 	c #9C9C9C",
": 	c #A5A5A5",
"< 	c #949494",
"[ 	c #4A4242",
"} 	c #5A5252",
"| 	c #6B6363",
"1 	c #423131",
"2 	c #6B3921",
"3 	c #9C7B63",
"4 	c #8C7363",
"5 	c #634239",
"6 	c #4A3129",
"7 	c #B5B5B5",
"8 	c #6B5A52",
"9 	c #945A4A",
"0 	c #A5735A",
"a 	c #BD9C84",
"b 	c #BDA584",
"c 	c #947B73",
"d 	c #C6BDBD",
"e 	c #5A3931",
"f 	c #5A4242",
"g 	c #423939",
"h 	c #6B4A42",
"i 	c #BD7B5A",
"j 	c #BD9C7B",
"k 	c #BDA58C",
"l 	c #7B6B5A",
"m 	c #7B6352",
"n 	c #9C8C7B",
"o 	c #948473",
"p 	c #4A2118",
"q 	c #635242",
"r 	c #392929",
"s 	c #9C6342",
"t 	c #CEA584",
"u 	c #AD947B",
"v 	c #6B5242",
"w 	c #291810",
"x 	c #423121",
"y 	c #846B52",
"z 	c #6B5239",
"A 	c #290000",
"B 	c #524A42",
"C 	c #735A42",
"D 	c #523929",
"E 	c #5A4239",
"F 	c #7B634A",
"G 	c #CEA58C",
"H 	c #C69473",
"I 	c #734221",
"J 	c #391000",
"K 	c #393129",
"L 	c #7B5A52",
"M 	c #7B5242",
"N 	c #8C6352",
"O 	c #846352",
"P 	c #A5846B",
"Q 	c #DEAD9C",
"R 	c #C68C7B",
"S 	c #A56352",
"T 	c #8C5239",
"U 	c #524239",
"V 	c #84635A",
"W 	c #946B5A",
"X 	c #845242",
"Y 	c #734A39",
"Z 	c #292921",
"` 	c #312929",
" .	c #ADADAD",
"..	c #B5B5AD",
"+.	c #C6CECE",
"@.	c #CEDEDE",
"#.	c #BDC6C6",
"$.	c #ADB5B5",
"%.	c #C6C6BD",
"&.	c #CECEC6",
"*.	c #D6DED6",
"=.	c #A5ADA5",
"-.	c #BDCECE",
";.	c #DEF7F7",
">.	c #9CA59C",
",.	c #BDBDB5",
"'.	c #DEDECE",
").	c #DEDED6",
"!.	c #C6CEC6",
"~.	c #D6E7DE",
"{.	c #BDCEC6",
"].	c #D6EFEF",
"^.	c #C6D6D6",
"/.	c #BDBDBD",
"(.	c #D6D6C6",
"_.	c #E7E7CE",
":.	c #E7E7D6",
"<.	c #E7EFDE",
"[.	c #E7E7DE",
"}.	c #D6DECE",
"|.	c #CED6CE",
"1.	c #BDC6B5",
"2.	c #C6DEDE",
"3.	c #ADBDB5",
"4.	c #9CADA5",
"5.	c #E7EFD6",
"6.	c #EFEFE7",
"7.	c #E7EFE7",
"8.	c #ADADA5",
"9.	c #D6F7F7",
"0.	c #CEE7E7",
"a.	c #DEEFD6",
"b.	c #EFF7E7",
"c.	c #A5ADAD",
"d.	c #B5BDBD",
"e.	c #DEE7D6",
"f.	c #E7F7DE",
"g.	c #E7F7E7",
"h.	c #F7F7E7",
"i.	c #B5BDB5",
"j.	c #DEEFE7",
"k.	c #DEE7DE",
"l.	c #DEEFDE",
"m.	c #EFEFDE",
"n.	c #D6D6D6",
"o.	c #CECECE",
"p.	c #BDC6BD",
"q.	c #D6E7D6",
"r.	c #E7E7E7",
"s.	c #DEDEDE",
"t.	c #CED6D6",
"u.	c #949C94",
"v.	c #CEDECE",
"w.	c #EFEFEF",
"x.	c #C6D6CE",
"y.	c #F7F7EF",
"z.	c #F7F7F7",
"A.	c #F7526B",
"B.	c #F74263",
"C.	c #EFFFE7",
"D.	c #F75263",
"E.	c #FFFFF7",
"F.	c #F7FFF7",
"G.	c #DEEFEF",
"H.	c #F7FFEF",
"I.	c #F74A63",
"J.	c #EFF7EF",
"K.	c #FFFFEF",
"L.	c #E7F7F7",
"M.	c #D6E7E7",
"N.	c #DEF7EF",
"O.	c #EFFFF7",
"P.	c #9C9C94",
"Q.	c #73736B",
"        . + @ # $ $ $ @ % $ @ & & # % * * = % - ; > * % ; > , + + ' ) ) !                       ",
"      ~ % $ $ $ { { $ & % $ $ @ * # * % & - & - & ; & & * $ ; * > , ] ) ' ^                     ",
"    ~ / { $ $ $ { { $ $ - $ & % * % * % & * & ; - & % & - + % * > - + , ] ) (                   ",
"  ~ { { { $ @ { $ $ $ $ * $ $ * & & - > - * & * & > % - - > - @ * = % = + ' )                   ",
"~ $ { { $ $ $ $ { # % # @ @ % - % % % * - & - > > = $ & - * = @ % > > % ; , _ :                 ",
"$ { { { $ $ $ $ $ # & & # # & > % - * - * ; % * * ; ; * > - % % ; ; * @ * + ) )                 ",
"$ $ $ { { $ & @ $ $ & $ @ % * % % - * > ; % % ; - ; # * % % @ $ $ $ % + , , ) ' ~               ",
"$ $ $ $ $ $ # $ # @ * $ & $ ; - - % - % ; * % ; - , & & * * = ; + , ] ' < ' < ] ' <             ",
"{ $ $ { $ # $ $ $ @ * $ @ & = & * & - % - % - > @ > @ * + + , [ } | > ; = + < ' ) = , )         ",
"$ $ $ $ $ @ $ { $ - @ $ & @ - - & @ @ $ $ $ $ * % > & = ' > 1 2 3 4 5 6 1 % - ' ' ' , - , 7     ",
"$ $ { { # $ & $ $ # @ @ & & % - @ & & - > @ $ - @ ; & ; 8 9 0 a b 4 c d e f g = ' ) ) ] , ] = ) ",
"$ @ $ $ @ & * @ @ $ # @ * * % % % @ % & & & % ; $ = % % h i j k l m n o p e q r ] ) ) ' ) ) ' + ",
"& & $ $ @ * @ & @ & & % * - - * * & > > * % - = - , % [ 6 s t u 4 v w x v y z A B > ) ] ) ' ] ] ",
"& @ { { & $ $ $ & % % * & ; ; > > - - = - - - = * * * ; @ 1 9 3 C D E F 3 G H I J K % * = > ]   ",
"% # $ { @ @ $ & & * $ $ % - ; - - - = + ; - - = > , ; + = & 1 L M N O P Q R S T 8 U % @ * +     ",
"@ $ $ $ @ # # @ & @ * @ % - = > * ; ; - ; - - > * - * = ; & @ $ & E V W N X Y Z % > * ; , ] +   ",
"$ $ $ $ @ # & $ & @ - * = ; - ; * ; = - - % > + & - * ; = - * % @ $ $ & @ ` @ @ > @ * * - + > > ",
"$ $ $ $ & @ & # $ # & % % > - ; % > - + % - = = % + * > ; - > - - - % @ * * * % ; > * > + = > > ",
"$ $ $ $ % $ @ % $ % @ @ @ & @ > & - > + * % > + - > - + = ; > - > ; > * > + - > + ; = - + = ; = ",
"$ { # $ $ % # # $ $ # @ * * - - ; > + = > > = - * > & ; = % ; - = % = % * - * ; = * > * ; - & * ",
"@ $ @ & % @ > & & @ @ - * * - % % % - + ; ; + , + ; > = = > = = , > + = , - % > = = ; * , = * @ ",
"$ $ $ $ @ # % # $ @ # $ - > = ; & & ; ] ' ' < ) ] ) ] < ) ] ' , ' = ; * + = - > > % ; ; ; = % * ",
"& % & @ & & * $ $ & @ % @ > ; * & ; = , ] ' _  ._ _ : : : _ _ ) ) ' ] ] + = - = = * - * = = % - ",
"& $ & @ & & @ & @ @ @ # - > > > & ; + ] ' ( _ : ..+.~ +.@.#. .$.7 : _ : : ) ' > + - ; > ; = > + ",
"& % $ & @ $ * # $ $ % @ % > * * = - ] ' _ _ : ..%.&.. . *.7 =.-.;.-.>. .$.:  .< ' = * = % % - ; ",
"$ @ # % % & @ & { @ @ * % - - ; > = + <  ...,.%.&.'.).).*.&.%.!.~.=.( {.].^./.7 7 _ < _ ] = , - ",
"{ $ $ @ & * & # $ $ % * * * * = - = , < +.~ (.'.'._.:.:.<.[.).}.|.1.=.#.2.3.4.: +./. . .' > = + ",
"{ & & % & % & $ & * # * ; % - > ; = ] < #.!.&.'._._._.5.<.6.7.<.[.}.1.8.( ! ! 4.9.0.#./.7 _ ' , ",
"$ @ @ & % % @ $ & # * ; % > - ; ; - + ) : 7 %.(.:.:._.a.<.7.b.b.6.[.}.%...>.( 4.9.].c.>.+.d.7 < ",
"$ - * & * * $ @ @ # @ - % % * , = % > ] _ 7 %.|.e.:.5.a.a.f.g.b.h.6.[.. ~ i. .$.-._ ! c.9.0.+.: ",
"@ % * & * - $ @ & & - - = * @ * * - > + )  .!.j.*.k.<.l.l.l.f.f.b.b.m.[.n.o.~ p.,...: $.].c.: 7 ",
"% % # & @ % $ # $ $ & & & @ & = % * ; ] ] < : p.|.*.e.k.q.l.l.<.<.g.b.6.r.s.*.n.. o.o.t./.u.u.0.",
"- - @ % * - $ $ @ $ & > & & % ; % ; > = ] ] _ 7 1.*.*.|.v.q.e.a.<.f.b.b.w.w.r.r.r.[.s.s.s.|.~   ",
"& * $ # @ % # $ # & * % % & * % # * * = ] ' ' 7 ^.;.x.p.!.|.q.a.f.g.b.b.y.z.z.z.z.w.w.w.r.s.n.j.",
"- - A.A.A.A.A.& # # # @ % # - = @ ; & - = + ] ) 7 ].{...i.B.B.a.f.B.B.b.C.B.B.z.z.z.z.z.w.r.n.&.",
"% % A.A.A.A.D.D.& - - & * * ; - - = > > = + ) ) _ +.d.=...B.B.e.<.B.B.g.b.B.B.E.E.F.z.z.z.w.r.n.",
"& @ A.A.& - D.D.D.& * @ & - - & ; * % - * - , ] ) : c.>.{.j.*.e.<.B.B.g.f.B.B.F.E.E.E.z.z.z.w.r.",
"; % A.A.- - * D.D.@ - @ % % > % @ = = * % ; ] ' ] _ /.0.;.G.&.e.<.B.B.g.f.B.B.H.F.E.E.E.E.z.z.w.",
"* & A.A.* - A.D.D.$ % D.D.D.% ; D.D.I.* % % I.B.B.B.B.7 ].B.B.).[.B.B.g.g.B.B.J.H.B.B.B.B.B.E.z.",
"* * A.A.A.A.D.D.; & D.D.D.* - D.D.I.I.I.> * I.B.B.B.B.: d.B.B.&.).B.B.b.b.B.B.b.y.B.B.B.B.B.E.E.",
"% & A.A.A.A.D.> > - D.D.$ - D.D.D.* I.I.I.- - % B.B.B.'  .B.B.*.r.B.B.6.J.B.B.b.b.h.y.K.B.B.K.K.",
"@ @ A.A.- - ; ; ; > D.D.$ @ D.D.& & - I.I.> + > B.B.+ ] ' B.B.G.L.B.B.6.w.B.B.b.b.B.B.B.B.B.K.K.",
"% % A.A.& * ; > > = D.D.& $ D.D.& * % I.I.; = I.B.- + ' ] B.B.~ M.B.B.[.6.B.B.y.B.B.b.b.B.B.h.h.",
"$ $ A.A.% @ % ; - = D.D.- > D.D.D.& I.I.I.* I.I.B.% ; = + B.B._ $.B.B.k.r.B.B.z.B.B.b.b.B.B.m.h.",
"> & A.A.* = > = , ; D.D.; > > D.D.D.I.I.@ - I.B.B.B.B.+ ] B.B.< : B.B.N.O.B.B.w.B.B.B.B.B.B.m.m.",
"$ $ A.A.$ # > - = % D.D.; * @ & D.I.I.s._ # I.B.B.B.B.+ = B.B.] ' B.B.t.L.B.B.w.z.B.B.B.B.B.m.m.",
"% % % - % % > * + + * > > = % % , , ]     ! # $ * - * - ; , ] ] ] : ~ ~ |.&.n.r.w.y.z.z.y.y.h.m.",
"* % * - @ - ; > % ; ; - = * & ; = ' P.      Q.$ - = > - * ; , , ] _  ./.~ ~ o.[.6.w.y.z.z.z.y.m."};
