/* XPM */
static char * Pzdlwin_xpm[] = {
"48 48 257 2",
"  	c None",
". 	c #000000",
"+ 	c #101010",
"@ 	c #181818",
"# 	c #212121",
"$ 	c #290000",
"% 	c #292118",
"& 	c #292121",
"* 	c #292929",
"= 	c #312929",
"- 	c #313129",
"; 	c #313131",
"> 	c #391000",
", 	c #392929",
"' 	c #393931",
") 	c #393939",
"! 	c #422110",
"~ 	c #423121",
"{ 	c #423131",
"] 	c #423939",
"^ 	c #424239",
"/ 	c #424242",
"( 	c #4A3129",
"_ 	c #4A3929",
": 	c #4A4A42",
"< 	c #4A4A4A",
"[ 	c #524231",
"} 	c #524239",
"| 	c #524242",
"1 	c #524A42",
"2 	c #52524A",
"3 	c #525252",
"4 	c #5A3931",
"5 	c #5A4239",
"6 	c #5A5A5A",
"7 	c #635242",
"8 	c #63635A",
"9 	c #6B5242",
"0 	c #6B5A52",
"a 	c #734221",
"b 	c #734239",
"c 	c #8C4A39",
"d 	c #845239",
"e 	c #7B5242",
"f 	c #7B634A",
"g 	c #846352",
"h 	c #84635A",
"i 	c #84735A",
"j 	c #906756",
"k 	c #635A63",
"l 	c #636363",
"m 	c #6B6363",
"n 	c #6B6B63",
"o 	c #736363",
"p 	c #9C7B63",
"q 	c #6B636B",
"r 	c #6B6B6B",
"s 	c #73736B",
"t 	c #8C6B6B",
"u 	c #736B73",
"v 	c #737373",
"w 	c #7B7B73",
"x 	c #8C7B73",
"y 	c #948473",
"z 	c #7B737B",
"A 	c #52738C",
"B 	c #527394",
"C 	c #5A7394",
"D 	c #5A7B94",
"E 	c #637394",
"F 	c #637B94",
"G 	c #637B9C",
"H 	c #67849C",
"I 	c #738C9C",
"J 	c #739494",
"K 	c #7B7B7B",
"L 	c #7B8C9C",
"M 	c #847B84",
"N 	c #84847B",
"O 	c #848484",
"P 	c #848C84",
"Q 	c #84948C",
"R 	c #849494",
"S 	c #8C848C",
"T 	c #8C8C84",
"U 	c #8C8C8C",
"V 	c #8C948C",
"W 	c #8C9494",
"X 	c #94847B",
"Y 	c #948C8C",
"Z 	c #948C94",
"` 	c #94948C",
" .	c #949494",
"..	c #949C94",
"+.	c #9C8C84",
"@.	c #9C9494",
"#.	c #9C9C94",
"$.	c #738CA5",
"%.	c #73A5A5",
"&.	c #7B949C",
"*.	c #7B94A5",
"=.	c #7BA5A5",
"-.	c #7BA5AD",
";.	c #8494A5",
">.	c #8494AD",
",.	c #849CA5",
"'.	c #94989C",
").	c #84A5AD",
"!.	c #84ADAD",
"~.	c #94A5A5",
"{.	c #9C949C",
"].	c #9C9C9C",
"^.	c #9CA59C",
"/.	c #739CBD",
"(.	c #739CC6",
"_.	c #7B9CBD",
":.	c #84ADB5",
"<.	c #94ADAD",
"[.	c #8CA9B9",
"}.	c #8CB5B5",
"|.	c #94B1BD",
"1.	c #7B9CC6",
"2.	c #7FA5C6",
"3.	c #8CA5C6",
"4.	c #8CADC6",
"5.	c #90ADCA",
"6.	c #90B3E6",
"7.	c #6FADFF",
"8.	c #87B5F5",
"9.	c #B58168",
"0.	c #F79C41",
"a.	c #F7A529",
"b.	c #F99457",
"c.	c #FF904E",
"d.	c #FF9452",
"e.	c #FF8C5A",
"f.	c #FF995D",
"g.	c #EFAD18",
"h.	c #F1A736",
"i.	c #F7A54A",
"j.	c #F9A560",
"k.	c #E2AD73",
"l.	c #F3AB6D",
"m.	c #F7AD73",
"n.	c #F6D275",
"o.	c #A59C8C",
"p.	c #A2A49F",
"q.	c #D2A990",
"r.	c #D3AF9C",
"s.	c #E7AD7B",
"t.	c #E4AF86",
"u.	c #DEAF96",
"v.	c #DEBD9C",
"w.	c #EFAD7B",
"x.	c #EFB57F",
"y.	c #EBB98C",
"z.	c #E7BA96",
"A.	c #F7D086",
"B.	c #E9C899",
"C.	c #FFE67F",
"D.	c #F3E094",
"E.	c #A59CA5",
"F.	c #A5A5A5",
"G.	c #ADA5A5",
"H.	c #ADA5AD",
"I.	c #A5ADA5",
"J.	c #ADADA5",
"K.	c #A5ADAD",
"L.	c #ADADAD",
"M.	c #A5B5A5",
"N.	c #A5B5AD",
"O.	c #9CB5B5",
"P.	c #A0B9B9",
"Q.	c #ADB5AD",
"R.	c #ADB5B5",
"S.	c #ADBDB5",
"T.	c #B5ADB5",
"U.	c #B5B5AD",
"V.	c #B5B5B5",
"W.	c #BDADB9",
"X.	c #BDB5BD",
"Y.	c #B5BDB5",
"Z.	c #B9C1B1",
"`.	c #BDBDB5",
" +	c #BDBDBD",
".+	c #CBAFAA",
"++	c #C6B5B5",
"@+	c #D0B7AF",
"#+	c #D8BBA9",
"$+	c #BDC6BD",
"%+	c #D8CAAF",
"&+	c #E4D0A7",
"*+	c #E1DBAD",
"=+	c #9CB5C6",
"-+	c #9CBDC8",
";+	c #B2AFCB",
">+	c #ADC1CA",
",+	c #A5ADD6",
"'+	c #9FB2E1",
")+	c #A5C1E7",
"!+	c #AFBDDA",
"~+	c #BDB9C6",
"{+	c #C6BDBD",
"]+	c #C6BDC6",
"^+	c #BDC6C6",
"/+	c #BDBDCE",
"(+	c #BDC6CE",
"_+	c #B5C6D6",
":+	c #B5C6DE",
"<+	c #9CCED6",
"[+	c #9CD6DE",
"}+	c #A5D6DE",
"|+	c #A5D6E7",
"1+	c #A5DEDE",
"2+	c #A5DEE7",
"3+	c #ADCEDE",
"4+	c #ADDEDE",
"5+	c #B5CECE",
"6+	c #BDCECE",
"7+	c #B5CED6",
"8+	c #B5D6D6",
"9+	c #ADDEE7",
"0+	c #BDCED6",
"a+	c #B5CEDE",
"b+	c #B9DEE2",
"c+	c #C6C6BD",
"d+	c #C6C6C6",
"e+	c #C6CEC1",
"f+	c #CECABD",
"g+	c #C6C6CE",
"h+	c #C6CECE",
"i+	c #CECACA",
"j+	c #CECECE",
"k+	c #CAD6CA",
"l+	c #CED6CE",
"m+	c #CEDEC6",
"n+	c #C6D6D6",
"o+	c #D6D3C5",
"p+	c #D6D6CE",
"q+	c #D6E7BD",
"r+	c #E1E6C8",
"s+	c #CEDEDE",
"t+	c #D6D6D6",
"u+	c #D6E2D6",
"v+	c #DEE1D8",
"w+	c #C6E7DE",
"x+	c #D4E9E6",
"y+	c #DEE7DE",
"z+	c #DBF1E9",
"A+	c #E7E7D6",
"B+	c #E7E7DE",
"C+	c #E7EFD6",
"D+	c #E7F3DE",
"E+	c #E7EBE7",
"F+	c #EFEFE2",
"G+	c #DEF9F7",
"H+	c #F3F7E7",
"T T T T P 6 # # @ @ @ * ) @ * ; ; # ) / / l ) q r r / ) 3 6 v r r O U U T T T T T T T T T T T U ",
"T T e.e.e.e.f.@ . . @ * ) @ @ # ) # ) ) * q l Z U  .l k / n.n./ 6 C.C.U O C.C.T T T T T T T T T ",
"T T e.e.e.b.f.f.. . @ @ < @ ; ) / ) / ) l Z L ;.Z U Z U q A.A./ 6 A.C.v K D.C.T T T T U T T T T ",
"T 8 c.d.. @ f.f.j.@ @ @ / @ @ ) ; * / 6 q Z l l L ,.Z  .Z  .q k / D.D.l r D.D.P U T T T T T T T ",
"s @ c.d.@ @ @ j.j.# ) # # # ) < ) ) ) / q U ; r r u I L Z Z {.U l B.&+) < &+*+l T T T T T T T T ",
"@ . c.d.@ @ j.j.j.# * l.l.m.; 6 x.x.x.< l  .y.y.z.B.B.l ;.B.B.l ) &+&+# / *+*+K K *+*+q+q+q+T T ",
"@ @ 0.0.i.b.j.j.@ @ l.l.l.) ) s.x.t.t.y.q Z z.z.v.v.v.l Z v.%+k . %+%+r v %+f+O K o+m+m+m+m+T T ",
"@ @ 0.0.i.i.j.@ # * l.l.* @ s.t.t.) t.z.z.Z l ;.v.v.#+l Z #+%+r < f+f+O  .f+e+K K l O T h+6+T T ",
". @ h.0.@ # @ @ @ * k.k.* ; t.t.) ; / u.u.Z ) r #+#+E l ].@+{+m ] c+c+3 l ^+(+O U (+_+7+7+a+T T ",
"@ @ h.h.@ # @ . @ < k.s.; * t.t.; # # r.r.U k @+@+H L u E.{+{+o 9 ~+/+( { _+_+O !+!+v < )+)+N P ",
"@ @ a.h.# @ * @ @ # k.k.; * t.u.u.; r.r.r.U .+.+++F L r @.~+~++.i ;+!+{+4 !+!+l )+)+U K 6.6.l r ",
"@ # g.h.# ; ) # # @ k.k./ ) ) q.r.r.r..+@ l .+++W.W.X.l @.;+;++.1 ,+,+y ! '+'+, 6.6.8.8.8.8.O r ",
"; * g.h.# / * * # * k.k./ < < ) r.r..+6 / * W.W.W.W.;+q Y ;+,+X 7 '+'+~ 9 6.6.$ | 8.8.7.7.7.K K ",
"; # . . * @ @ @ * ) ) / ; < 3 6 6 < < l < < < / ; l J ;.U Y t x [ _ 5 f p q.9.a > , ) / l 6 K N ",
") # @ . * * @ ; * / @ @ ) / 3 < < < l r < < < l 6 3 ) v u l % 5 e j g y r.9.j c 0 } ) * / r N T ",
"* @ @ @ * # # # ; * / # ) < l 6 / < < < < < < 6 / / / / ) # # @ - 5 h j j d b & ) 6 / < v K r O ",
"@ @ @ @ # # * @ * # < / l < < 3 / < l < / ) 6 r ; < / < u ) ) ) # @ @ = * * # # 6 * ) / / r 6 6 ",
"@ @ @ @ * # * # @ # ; ) ) 6 < 3 ) 6 < r ) < 6 l ) r / 6 r ) 6 < / < ) * ) ) ) ) < 6 / 6 r l 6 6 ",
"@ @ @ @ ) @ * ) @ ) # # * * # 6 ; < 6 r / ) 6 r / 6 < r v ) 6 < 6 3 6 / 6 r < 6 r 3 l < r l 3 l ",
"@ . # @ @ ) # # @ @ # # / / / < < 6 r l 6 6 l < ) 6 ; 3 u * < < l ) l ) / < / < l ) 6 / 3 < * ) ",
"# @ # ; ) # 6 * ; k k q q l q l l l q v r r v z v r r :.H F v u z r v v z q l u v u r l v l / * ",
"@ @ @ @ # # ) # k @ @ . ) / / ) # # ) 6 6 6 r l 6 l 3 |.|.$.6 3 6 / ) ; < / ) / / * ) ) q l ) / ",
"; ) * * ; ; / @ k # * ) * 6 3 / ; 3 l v K O ].L.].].F.v v r r U U O K K r 6 / l l / < l / l ) < ",
"; @ * # ; * * ; k @ * # / 6 6 6 * 3 r K O ` ].F.U.h+d+h+s+^+L.R.V.F.].F.F.U O 6 r < 3 r ) 6 6 r ",
"* ) @ ; * @ / # k . ) * ) 6 / / l < K O #.].F.U.c+i+p+p+t+V.I.6+G+6+p.L.R.F.L. .O l / u * ) < 3 ",
"@ # # ) ) * # ; k @ # ) ) < / < 6 l r  .Q.U.`.c+o+p+v+v+u+j+c+e+s+I.` ^+z+n+ +V.V.]. .U 6 l v < ",
". k k =.=.-.l k k . ) ) ) / / v q !.}.-+K.F.J.U.U.U.U.`.w+w+b+Q.J.p. .F.N.'.-+-+7+]. . .l 6 l r ",
". @ # C =.C # . # * # / 3 ) < / ) H }.>.U V ` #.^.#.^.p.5+w+_+I.p.#.T w n l *.-+3+~.Q O O ].O v ",
"@ # * ; l * @ @ ; # / < ) 6 < 3 3 < v l K V.c+p+A+A+r+C+D+`.J.J.F+B+p+c+U.^.` W O.<.K.^.h+V.V. .",
"@ / / * l ; @ * # # * < ) ) / v 6 ) u 6 ].V.c+l+v+A+C+C+C+Y.I.H+H+F+B+p+d+Y.L.'.Q ..T K.G+x+d+F.",
"* ) / ; l ; @ # * ; < / l / # / / < r < U L.d+y+u+y+B+y+y+Y.I.D+F+H+F+B+t+j+d+].K U.F.R.x+K.F.V.",
") ) # * k * @ # @ @ * * * * * 6 ) / q 6 K  .F.$+k+u+y+y+u+Y.p.D+D+D+F+F+E+v+v+F.O j+j+t+ +....w+",
"Z Z U Z Z Z U U U U ; 6 ; U Z  .Z  . .{.E.E.L.V.$+u+d+d+d+h+j+j+j+j+l+j+j+i+i+d+d+d+d+d+d+j+d+G+",
"U l k k k l k k k U l ) ) U l l k l q v K K F.].n+G+d+p.F.I.J.J.J.J.I.i+].].{. . . . .{.d+{.t+z+",
"Z q =.-.-.-.=.=.%.U %.k ) U q :.%.).=.-.!.:.E.|.].z+ +'.|.|.=+=+=+=+4+d+4+U 4+}+1.1.2.2.]+4+ .i+",
"Z l %.=.-.).=.=.=.Z ; # ; Z r -.-.!.).).!.:.H.l v W  +Y [.[.|.5.4.3.4+]+/ ^ ' }+/././.1.]+< 3 l ",
"U k k k k -.=.k k l -.U # Z q l q l =.).l q K }.F.v V.U 4.5.3.3.2.2.O O }+ +& M /././././.1.]+3 ",
" .l -.).).).-.).%.%.-.U * Z r =.=.!.:.-.-.).}.|.E.r  +F.5.4.2.2.1.1.}+}+}+X.@ [+/./././././.]+: ",
"Z k k l -.q q r -.k l U @ Z l q k =.r q l -.l v E.< T.U 4.2._._././.}+M M X.@ [+/./././././. +) ",
"Z l =.=.-.-.).!.).=.%.U . Z q =.-.).).).!.-.).).E.< L.O _._._./././.[+[+[+X.@ [+/./././././.X.- ",
"Z C C C F C C r r q k U . Z k %.k q A F F F F F {.) T.K <+M M M }+M M M M X.@ M M [+M K M M X.& ",
"U A C C F F F ).).).%.U . U r %.=.=.F C C H H H {.@ T.K <+[+[+}+}+[+[+[+[+X.@ [+[+[+[+[+[+[+X.& ",
"Z C C F C C F ).u :.l U # U k k l l C C C F H G E.* T.K K M M [+M [+M [+M X.@ M [+M [+M [+M X.* ",
"U A C C C C C ).).!.).Z ;  .k %.=.=.A A F C F H E.# L.z <+[+[+[+[+[+[+[+[+X.@ [+[+[+[+[+[+[+X.& ",
"{.C F F C H F !.z ).v {.)  .r l u -.F A A F F G E.; T.z K K [+K M [+M [+M X.@ [+M M [+M [+M  +- ",
"U A C C A A H -.!.=.-. .) Z k =.:.).I *.F A C D ].* H.z <+<+[+[+[+[+[+[+}+ +# }+}+}+}+}+}+}+{+^ ",
"Z Z Z  .Z Z  .Z {.].Z {./ {.Z Z ].].p.F.F.{.U Z {.* F.H.T.T.X.X.X.X.X.X.X.X.;  + +]+]+]+]+]+]+2 ",
"; * ; ; @ ; ) / * ) ) ; / ; # ) / 6 r l l l / . ; / ; * # * ; ; * ; ) / / / / : < < 2 3 3 6 l n "};
